<svg width="175" height="175" viewBox="0 0 175 175" fill="none" xmlns="http://www.w3.org/2000/svg">
<path d="M74.5978 39.5535C78.9808 49.4551 81.1578 65.7694 82.1989 77.2532C77.8395 68.3089 71.8426 61.6128 69.3307 59.0218L73.6012 53.804L74.7774 52.3678L73.276 51.2786L67.5783 47.1456L74.5978 39.5535ZM75.0477 36.4948L64.96 47.4043L72.2533 52.6938L66.9767 59.1407C66.9767 59.1407 81.565 72.8588 84.825 90.3813C84.825 90.3813 83.5826 52.3643 75.0477 36.4948Z" fill="url(#paint0_linear_9_190)"/>
<path d="M100.124 39.5535L107.143 47.1464L101.447 51.2786L99.9443 52.3678L101.12 53.804L105.39 59.0218C102.879 61.6128 96.8823 68.3097 92.5228 77.2532C93.563 65.7703 95.7392 49.4542 100.124 39.5535ZM99.6732 36.4948C91.1383 52.3634 89.8967 90.3821 89.8967 90.3821C93.1558 72.8597 107.744 59.1416 107.744 59.1416L102.468 52.6947L109.76 47.4052L99.6732 36.4948Z" fill="url(#paint1_linear_9_190)"/>
<path d="M81.7821 39.8577L83.4291 40.641L81.8301 41.1873C81.8135 40.7598 81.7978 40.3062 81.7821 39.8577ZM79.9712 37.0622C79.9712 38.696 80.1805 43.5965 80.1805 43.5965L88.0606 40.9058L79.9712 37.0622Z" fill="url(#paint2_linear_9_190)"/>
<path d="M92.9387 39.8577C92.923 40.3062 92.9073 40.759 92.8908 41.1864L91.2926 40.6401L92.9387 39.8577ZM94.7505 37.0622L86.6629 40.9058L94.5412 43.5965C94.5412 43.5965 94.7505 38.696 94.7505 37.0622Z" fill="url(#paint3_linear_9_190)"/>
<path d="M64.8801 101.674L50.2432 138.187H45.9969L31.36 101.674H35.5563L48.145 133.879L60.7837 101.674H64.8801ZM92.0059 126.867H71.9238C72.0737 129.321 72.9729 131.325 74.6713 132.928C76.3698 134.58 78.418 135.382 80.8159 135.382C84.5625 135.382 87.36 133.529 88.509 130.073L91.7061 131.074C91.0068 133.428 89.658 135.282 87.6597 136.634C85.6615 137.936 83.4135 138.637 80.8658 138.637C78.5179 138.637 76.3698 138.036 74.4216 136.884C72.4733 135.732 70.9746 134.18 69.9256 132.176C68.8266 130.223 68.2771 128.069 68.2771 125.715C68.2771 123.461 68.7766 121.358 69.8257 119.404C70.8248 117.401 72.2735 115.848 74.1718 114.646C76.0201 113.444 78.1183 112.843 80.3663 112.843C82.8141 112.843 84.9622 113.394 86.7606 114.546C88.5589 115.648 89.9077 117.201 90.757 119.104C91.6562 121.007 92.0558 123.161 92.0558 125.665C92.0558 125.916 92.0558 126.316 92.0059 126.867ZM71.9738 123.762H88.4091C88.1593 121.458 87.3101 119.605 85.9113 118.152C84.5126 116.75 82.6642 116.049 80.3663 116.049C78.2182 116.049 76.4198 116.8 74.8212 118.303C73.2226 119.855 72.2735 121.658 71.9738 123.762ZM114.686 131.124C114.686 133.328 113.836 135.131 112.138 136.484C110.439 137.886 108.341 138.587 105.893 138.587C101.897 138.587 99.2994 136.934 97.9506 134.981C96.9515 133.629 96.6018 132.427 96.4519 131.175L99.749 130.323C100.149 132.627 101.897 135.432 105.844 135.432C107.242 135.432 108.441 135.031 109.49 134.28C110.489 133.579 110.989 132.577 110.989 131.325C110.989 130.323 110.589 129.522 109.79 128.921C108.991 128.27 108.042 127.869 106.943 127.618L103.146 126.767C99.0496 125.865 96.9515 123.662 96.9515 120.256C96.9515 117.702 98.2503 115.598 100.049 114.496C101.797 113.394 103.695 112.843 105.394 112.843C109.141 112.893 111.538 114.346 112.837 116.149C113.736 117.401 114.136 118.453 114.336 119.505L111.039 120.456C110.789 119.455 110.389 118.653 109.59 117.651C108.741 116.65 107.242 116.049 105.394 116.049C104.045 116.049 102.946 116.399 101.997 117.201C101.048 117.952 100.598 118.904 100.598 120.005C100.598 121.959 101.997 122.86 104.195 123.411L108.191 124.313C111.439 125.064 114.686 127.118 114.686 131.124ZM129.822 138.387C124.427 138.387 122.778 135.382 122.778 131.726V116.499H118.183V113.294H122.778V106.132H126.375V113.294H132.67V116.499H126.375V131.675C126.375 133.979 127.724 135.181 130.422 135.181C131.271 135.181 132.02 135.081 132.67 134.981V137.986C131.87 138.237 130.921 138.387 129.822 138.387ZM138.714 106.332C138.215 105.781 137.915 105.13 137.915 104.379C137.915 103.628 138.215 102.976 138.714 102.425C139.214 101.925 139.913 101.624 140.662 101.624C141.412 101.624 142.061 101.925 142.561 102.425C143.11 102.976 143.36 103.628 143.36 104.379C143.36 105.13 143.11 105.781 142.561 106.332C142.061 106.833 141.412 107.133 140.662 107.133C139.913 107.133 139.214 106.833 138.714 106.332ZM138.814 138.187V113.294H142.461V138.187H138.814Z" fill="#1F1F1F"/>
<defs>
<linearGradient id="paint0_linear_9_190" x1="64.96" y1="36.4948" x2="84.825" y2="36.4948" gradientUnits="userSpaceOnUse">
<stop stop-color="#2D388A"/>
<stop offset="1" stop-color="#00AEEF"/>
</linearGradient>
<linearGradient id="paint1_linear_9_190" x1="89.8967" y1="36.4948" x2="109.76" y2="36.4948" gradientUnits="userSpaceOnUse">
<stop stop-color="#2D388A"/>
<stop offset="1" stop-color="#00AEEF"/>
</linearGradient>
<linearGradient id="paint2_linear_9_190" x1="79.9712" y1="37.0622" x2="88.0606" y2="37.0622" gradientUnits="userSpaceOnUse">
<stop stop-color="#2D388A"/>
<stop offset="1" stop-color="#00AEEF"/>
</linearGradient>
<linearGradient id="paint3_linear_9_190" x1="86.6629" y1="37.0622" x2="94.7505" y2="37.0622" gradientUnits="userSpaceOnUse">
<stop stop-color="#2D388A"/>
<stop offset="1" stop-color="#00AEEF"/>
</linearGradient>
</defs>
</svg>
